# xmcd
# Track frame offsets:
# 150
# 12046
# 27678
# 42143
# 58595
# 74309
# 88873
# 103665
# 117639
# 132481
# 142128
# 155129
# 172623
# 187877
# 201243
#
# Disc length: 2775 seconds
# Revision: 3
# Processed by: cddbd v1.5.2PL0 Copyright (c) Steve Scherf et al.
# Submitted via: VisiTrax 2.11.3.279 - For more info visit www.synapsa.com
#
DISCID=d90ad50f
DTITLE=Slim Dusty - The Slim Dusty Family Reunion
DYEAR=2008
DGENRE=Australian Country
TTITLE0=Slim Dusty - How Good It Is
TTITLE1=Anne Kirkpatrick - Road Dreamin'
TTITLE2=James Arneman and Hannah Kirkpatrick - Resting Place
TTITLE3=David Kirkpatrick - Old Purple
TTITLE4=Anne Kirkpatrick - Took His Saddle Home
TTITLE5=David and Anne Kirkpatrick - Pick It Up And Pass It On
TTITLE6=Joy McKean - Too Many Memories
TTITLE7=Slim Dusty - Sunburnt People
TTITLE8=David Kirkpatrick - Keep On Rolling (The Song)
TTITLE9=Kate Arneman - High, Wide And Handsome
TTITLE10=Hannah Kirkpatrick - The Dreamer
TTITLE11=James Arneman - Middle Of The Road
TTITLE12=Joy McKean and Family - Family Reunion
TTITLE13=Anne Kirkpatrick - From There To Now
TTITLE14=Slim Dusty - Slim Dusty Recording
EXTD=2008 EMI Music Australia Pty Limited
EXTT0=
EXTT1=
EXTT2=
EXTT3=
EXTT4=
EXTT5=
EXTT6=
EXTT7=
EXTT8=
EXTT9=
EXTT10=
EXTT11=
EXTT12=
EXTT13=
EXTT14=
PLAYORDER=
